<svg xmlns="http://www.w3.org/2000/svg" width="300" height="300" viewBox="0 0 300 300"><g transform="translate(-307 -471)"><rect width="300" height="300" transform="translate(307 471)" fill="rgba(255,255,255,0)"/><g transform="translate(395 532)"><path d="M39.81,178.13H28.49l23-39.12H62.81Z"/><path d="M55.09,100.18H21.12l-3.06-9.59h8.59l46.77-81H98.79L104.33,0l3.06,9.59Z"/><path d="M52.03,90.59H18.06L70.36,0h33.97Z" fill="#fff"/><path d="M77.33,46.75H43.18l1.31-2.27H78.64Z"/><path d="M70.27,147.6H36.3l-3.06-9.59h8.59l46.77-81h25.37l5.54-9.59,3.06,9.59Z"/><path d="M67.21,138.01H33.24l52.3-90.59h33.97Z" fill="#fff"/><path d="M95.25,178.13H61.28l-3.07-9.58h8.6l23.68-39.63h25.37l5.54-9.59,3.06,9.59Z"/><path d="M92.99,168.53H58.21l28.41-49.2H121.4Z" fill="#fff"/><path d="M94.94,90.04H60.79l1.31-2.27H96.25Z"/><path d="M15.5,74.14H4.18L35.43,20.01H46.75Z" fill="#1d1d1b"/><path d="M48.48,90.59H37.16L0,154.95H11.32Z"/></g></g></svg>